<svg width="459" height="490" viewBox="0 0 459 490" fill="none" xmlns="http://www.w3.org/2000/svg">
<path d="M96.8604 221.107C96.8604 216.48 100.03 212.455 104.527 211.37L150.276 200.331C156.578 198.81 162.643 203.585 162.643 210.068V236.288C162.643 241.175 159.115 245.349 154.296 246.164L108.547 253.901C102.435 254.935 96.8604 250.224 96.8604 244.025V221.107Z" fill="#B76508"/>
<path d="M96.8604 269.16C96.8604 264.233 100.443 260.038 105.309 259.267L151.058 252.015C157.139 251.051 162.643 255.751 162.643 261.908V294.607C162.643 299.857 158.589 304.216 153.353 304.597L107.604 307.927C101.801 308.35 96.8604 303.756 96.8604 297.937V269.16Z" fill="#B76508"/>
<path d="M96.8604 321.026C96.8604 315.76 100.937 311.394 106.191 311.033L151.94 307.891C157.728 307.493 162.643 312.081 162.643 317.884V348.418C162.643 353.95 158.158 358.434 152.626 358.434H106.877C101.345 358.434 96.8604 353.95 96.8604 348.418V321.026Z" fill="#B76508"/>
<path d="M96.8604 371.041C96.8604 365.509 101.345 361.024 106.877 361.024H152.626C158.158 361.024 162.643 365.509 162.643 371.041V400.104C162.643 406.064 157.47 410.706 151.544 410.062L105.795 405.093C100.712 404.541 96.8604 400.248 96.8604 395.135V371.041Z" fill="#B76508"/>
<path d="M42.4734 234.684C42.4734 230.045 45.6579 226.014 50.1701 224.94L81.9339 217.377C88.2281 215.879 94.2704 220.651 94.2704 227.121V248.049C94.2704 252.943 90.7344 257.12 85.908 257.928L54.1442 263.247C48.0365 264.27 42.4734 259.561 42.4734 253.368V234.684Z" fill="#B76508"/>
<path d="M42.4734 277.679C42.4734 272.74 46.0732 268.538 50.9534 267.781L82.7173 262.85C88.7891 261.907 94.2704 266.603 94.2704 272.748V299.562C94.2704 304.794 90.2448 309.144 85.0293 309.549L53.2655 312.015C47.4453 312.467 42.4734 307.866 42.4734 302.029V277.679Z" fill="#B76508"/>
<path d="M42.4734 325.229C42.4734 319.962 46.5527 315.595 51.8076 315.236L83.5714 313.067C89.3586 312.672 94.2704 317.26 94.2704 323.06V348.419C94.2704 353.951 89.7858 358.436 84.2538 358.436L52.49 358.436C46.958 358.436 42.4734 353.951 42.4734 348.419V325.229Z" fill="#B76508"/>
<path d="M42.4734 371.041C42.4734 365.509 46.958 361.024 52.49 361.024H84.2538C89.7858 361.024 94.2704 365.509 94.2704 371.041V392.886C94.2704 398.834 89.117 403.472 83.2016 402.847L51.4378 399.492C46.3415 398.953 42.4734 394.655 42.4734 389.53V371.041Z" fill="#B76508"/>
<path d="M42.4734 433.919C42.4734 438.591 45.7037 442.643 50.2585 443.684L82.0224 450.942C88.2934 452.375 94.2704 447.61 94.2704 441.177V415.926C94.2704 410.803 90.4042 406.505 85.3093 405.965L53.5455 402.599C47.629 401.973 42.4734 406.611 42.4734 412.56V433.919Z" fill="#B76508"/>
<path d="M96.8604 446.678C96.8604 451.344 100.082 455.392 104.629 456.439L150.378 466.974C156.654 468.419 162.643 463.653 162.643 457.213V423.969C162.643 418.868 158.81 414.582 153.741 414.014L107.992 408.889C102.056 408.224 96.8604 412.87 96.8604 418.843V446.678Z" fill="#B76508"/>
<path d="M165.233 204.691C165.233 200.067 168.397 196.044 172.891 194.956L238.323 179.107C244.627 177.58 250.698 182.356 250.698 188.842V221.564C250.698 226.451 247.17 230.625 242.351 231.44L176.919 242.505C170.807 243.539 165.233 238.828 165.233 232.629V204.691Z" fill="#B76508"/>
<path d="M165.233 258.063C165.233 253.15 168.796 248.962 173.645 248.175L239.077 237.561C245.17 236.573 250.698 241.276 250.698 247.449V288.133C250.698 293.39 246.634 297.753 241.39 298.125L175.958 302.769C170.162 303.18 165.233 298.589 165.233 292.778V258.063Z" fill="#B76508"/>
<path d="M165.233 316.208C165.233 310.945 169.306 306.579 174.557 306.216L239.989 301.682C245.779 301.281 250.698 305.87 250.698 311.675V348.418C250.698 353.95 246.213 358.435 240.681 358.435H175.249C169.717 358.435 165.233 353.95 165.233 348.418V316.208Z" fill="#B76508"/>
<path d="M165.233 371.041C165.233 365.509 169.717 361.024 175.249 361.024H240.681C246.213 361.024 250.698 365.509 250.698 371.041V409.957C250.698 415.913 245.532 420.553 239.61 419.917L174.178 412.88C169.09 412.333 165.233 408.038 165.233 402.921V371.041Z" fill="#B76508"/>
<path d="M0 244.994C0 240.377 3.15541 236.359 7.64031 235.263L27.4908 230.416C33.7994 228.875 39.8837 233.652 39.8837 240.146V257.842C39.8837 262.739 36.343 266.918 31.5126 267.723L11.6621 271.028C5.55701 272.045 0 267.337 0 261.148V244.994Z" fill="#B76508"/>
<path d="M0 283.73C0 278.807 3.57784 274.614 8.43974 273.839L28.2903 270.674C34.3744 269.704 39.8837 274.405 39.8837 280.566V303.246C39.8837 308.499 35.8265 312.859 30.5877 313.237L10.7372 314.669C4.93646 315.087 0 310.494 0 304.678V283.73Z" fill="#B76508"/>
<path d="M0.000654894 327.932C0.000286568 322.65 4.10039 318.276 9.37061 317.935L29.2205 316.651C34.9948 316.278 39.8837 320.86 39.8837 326.647V348.418C39.8837 353.95 35.3991 358.435 29.8671 358.435H10.0187C4.48694 358.435 0.00246952 353.951 0.00208373 348.419L0.000654894 327.932Z" fill="#B76508"/>
<path d="M0 371.041C0 365.509 4.48458 361.024 10.0166 361.024H29.8671C35.3991 361.024 39.8837 365.509 39.8837 371.041V387.163C39.8837 393.12 34.7155 397.761 28.7926 397.122L8.94212 394.98C3.85552 394.431 0 390.137 0 385.021V371.041Z" fill="#B76508"/>
<path d="M0 424.168C0 428.836 3.22395 432.885 7.77298 433.93L27.6235 438.493C33.8978 439.935 39.8837 435.168 39.8837 428.731V410.196C39.8837 405.096 36.052 400.81 30.984 400.242L11.1335 398.014C5.1964 397.348 0 401.994 0 407.968V424.168Z" fill="#B76508"/>
<path d="M165.233 462.361C165.233 467.028 168.455 471.076 173.003 472.123L238.435 487.178C244.71 488.622 250.698 483.856 250.698 477.417V433.935C250.698 428.834 246.864 424.548 241.795 423.98L176.363 416.658C170.427 415.994 165.233 420.639 165.233 426.612V462.361Z" fill="#B76508"/>
<path d="M378.636 222.274C378.636 217.882 375.775 214.003 371.58 212.705L338.262 202.398C331.818 200.404 325.285 205.221 325.285 211.967V236.614C325.285 241.358 328.613 245.451 333.258 246.419L366.575 253.364C372.796 254.66 378.636 249.912 378.636 243.558V222.274Z" fill="#FF8700"/>
<path d="M378.636 267.665C378.636 262.903 375.283 258.799 370.617 257.85L337.299 251.07C331.091 249.807 325.285 254.551 325.285 260.886V293.756C325.285 298.944 329.245 303.273 334.412 303.733L367.73 306.702C373.59 307.225 378.636 302.608 378.636 296.725V267.665Z" fill="#FF8700"/>
<path d="M378.636 320.792C378.636 315.581 374.639 311.24 369.445 310.81L336.128 308.053C330.29 307.57 325.285 312.177 325.285 318.035V348.418C325.285 353.95 329.77 358.434 335.302 358.434H368.619C374.151 358.434 378.636 353.95 378.636 348.418V320.792Z" fill="#FF8700"/>
<path d="M378.636 371.559C378.636 366.027 374.151 361.543 368.619 361.543H335.302C329.77 361.543 325.285 366.027 325.285 371.559V399.869C325.285 405.913 330.596 410.58 336.589 409.803L369.907 405.484C374.899 404.837 378.636 400.585 378.636 395.551V371.559Z" fill="#FF8700"/>
<path d="M424.217 235.744C424.217 231.328 421.325 227.433 417.097 226.156L394.657 219.377C388.226 217.434 381.743 222.248 381.743 228.965V248.684C381.743 253.425 385.066 257.516 389.706 258.488L412.146 263.19C418.369 264.494 424.217 259.744 424.217 253.386V235.744Z" fill="#FF8700"/>
<path d="M424.217 276.881C424.217 272.068 420.794 267.935 416.064 267.04L393.624 262.789C387.455 261.621 381.743 266.352 381.743 272.631V299.402C381.743 304.591 385.706 308.921 390.875 309.379L413.316 311.369C419.174 311.889 424.217 307.273 424.217 301.392V276.881Z" fill="#FF8700"/>
<path d="M424.217 325.104C424.217 319.895 420.226 315.556 415.036 315.122L392.595 313.244C386.754 312.756 381.743 317.365 381.743 323.226V348.419C381.743 353.951 386.228 358.436 391.76 358.436H414.2C419.732 358.436 424.217 353.951 424.217 348.419V325.104Z" fill="#FF8700"/>
<path d="M424.217 371.559C424.217 366.027 419.732 361.543 414.2 361.543H391.76C386.228 361.543 381.743 366.027 381.743 371.559V392.597C381.743 398.647 387.067 403.317 393.066 402.528L415.506 399.578C420.49 398.923 424.217 394.674 424.217 389.647V371.559Z" fill="#FF8700"/>
<path d="M424.217 430.604C424.217 434.994 421.359 438.872 417.166 440.172L394.726 447.128C388.28 449.126 381.743 444.308 381.743 437.56V415.583C381.743 410.589 385.422 406.358 390.367 405.664L412.807 402.512C418.834 401.665 424.217 406.345 424.217 412.431V430.604Z" fill="#FF8700"/>
<path d="M378.636 444.97C378.636 449.369 375.766 453.253 371.561 454.545L338.243 464.781C331.803 466.76 325.285 461.944 325.285 455.206V423.356C325.285 418.365 328.959 414.136 333.902 413.438L367.219 408.735C373.248 407.884 378.636 412.565 378.636 418.653V444.97Z" fill="#FF8700"/>
<path d="M322.177 204.519C322.177 200.121 319.307 196.237 315.103 194.945L266.764 180.091C260.323 178.112 253.805 182.928 253.805 189.666V221.931C253.805 226.666 257.121 230.754 261.754 231.732L310.093 241.931C316.32 243.245 322.177 238.495 322.177 232.131V204.519Z" fill="#FF8700"/>
<path d="M322.177 256.787C322.177 251.965 318.742 247.828 314.003 246.941L265.664 237.895C259.501 236.742 253.805 241.471 253.805 247.741V287.892C253.805 293.088 257.779 297.421 262.955 297.871L311.294 302.067C317.146 302.575 322.177 297.962 322.177 292.088V256.787Z" fill="#FF8700"/>
<path d="M322.177 315.867C322.177 310.659 318.185 306.319 312.995 305.885L264.656 301.847C258.815 301.359 253.805 305.967 253.805 311.828V348.364C253.805 353.917 258.323 358.41 263.876 358.38L312.214 358.12C317.725 358.09 322.177 353.615 322.177 348.104V315.867Z" fill="#FF8700"/>
<path d="M322.177 371.041C322.177 365.509 317.693 361.024 312.161 361.024H263.822C258.29 361.024 253.805 365.509 253.805 371.041V409.69C253.805 415.74 259.128 420.41 265.127 419.621L313.466 413.27C318.45 412.615 322.177 408.366 322.177 403.338V371.041Z" fill="#FF8700"/>
<path d="M458.921 246.489C458.921 242.079 456.037 238.188 451.817 236.905L440.254 233.391C433.82 231.435 427.325 236.25 427.325 242.975V258.738C427.325 263.479 430.649 267.571 435.29 268.542L446.853 270.962C453.075 272.265 458.921 267.516 458.921 261.158V246.489Z" fill="#FF8700"/>
<path d="M458.921 283.444C458.921 278.682 455.569 274.579 450.904 273.629L439.341 271.273C433.133 270.009 427.325 274.753 427.325 281.089V303.463C427.325 308.65 431.285 312.979 436.452 313.44L448.015 314.471C453.875 314.993 458.921 310.377 458.921 304.494V283.444Z" fill="#FF8700"/>
<path d="M458.921 327.756C458.921 322.537 454.914 318.193 449.712 317.772L438.149 316.837C432.318 316.365 427.325 320.97 427.325 326.821V348.418C427.325 353.95 431.81 358.435 437.342 358.435H448.903C454.435 358.435 458.919 353.951 458.92 348.419L458.921 327.756Z" fill="#FF8700"/>
<path d="M458.921 371.559C458.921 366.027 454.437 361.543 448.905 361.543H437.342C431.81 361.543 427.325 366.027 427.325 371.559V386.984C427.325 393.004 432.599 397.665 438.574 396.924L450.137 395.49C455.154 394.868 458.921 390.605 458.921 385.55V371.559Z" fill="#FF8700"/>
<path d="M458.921 420.092C458.921 424.496 456.045 428.383 451.834 429.671L440.271 433.207C433.833 435.176 427.325 430.361 427.325 423.629V408.51C427.325 403.457 431.089 399.195 436.104 398.57L447.667 397.131C453.644 396.386 458.921 401.047 458.921 407.07V420.092Z" fill="#FF8700"/>
<path d="M322.177 462.002C322.177 466.423 319.278 470.322 315.044 471.594L266.705 486.123C260.277 488.055 253.805 483.242 253.805 476.53V433.443C253.805 428.464 257.462 424.24 262.39 423.529L310.729 416.548C316.768 415.676 322.177 420.36 322.177 426.461V462.002Z" fill="#FF8700"/>
<path d="M96.8604 179.115C96.8604 174.61 99.8678 170.659 104.21 169.46L149.959 156.824C156.338 155.062 162.643 159.86 162.643 166.479V185.891C162.643 190.541 159.441 194.58 154.914 195.642L109.165 206.374C102.879 207.849 96.8604 203.079 96.8604 196.622V179.115Z" fill="#B76508"/>
<path d="M42.4734 194.345C42.4734 189.834 45.4881 185.88 49.8377 184.686L81.6015 175.963C87.9774 174.212 94.2704 179.01 94.2704 185.622V202.09C94.2704 206.738 91.0725 210.776 86.5477 211.84L54.7839 219.313C48.4965 220.792 42.4734 216.022 42.4734 209.563V194.345Z" fill="#B76508"/>
<path d="M165.233 159.865C165.233 155.368 168.23 151.422 172.562 150.216L237.994 131.995C244.378 130.217 250.698 135.018 250.698 141.645V164.792C250.698 169.423 247.523 173.451 243.019 174.532L177.587 190.238C171.288 191.75 165.233 186.975 165.233 180.498V159.865Z" fill="#B76508"/>
<path d="M0 205.841C0 201.359 2.97794 197.422 7.29123 196.202L27.1417 190.59C33.5345 188.782 39.8837 193.585 39.8837 200.228V214.644C39.8837 219.282 36.6991 223.314 32.1868 224.388L12.3363 229.113C6.0422 230.612 0 225.839 0 219.369V205.841Z" fill="#B76508"/>
<path d="M96.8604 140.043C96.8604 135.705 99.6526 131.861 103.778 130.518L149.527 115.632C155.999 113.526 162.643 118.35 162.643 125.157V142.383C162.643 146.909 159.607 150.873 155.238 152.053L109.489 164.412C103.123 166.131 96.8604 161.336 96.8604 154.742V140.043Z" fill="#B76508"/>
<path d="M42.4734 157.753C42.4734 153.414 45.2668 149.568 49.3931 148.227L81.1569 137.9C87.6291 135.796 94.2704 140.62 94.2704 147.426V160.908C94.2704 165.413 91.2633 169.364 86.9213 170.563L55.1575 179.339C48.7781 181.102 42.4734 176.303 42.4734 169.684V157.753Z" fill="#B76508"/>
<path d="M165.233 117.847C165.233 113.526 168.003 109.692 172.105 108.336L237.537 86.707C244.019 84.5645 250.698 89.391 250.698 96.2174V118.708C250.698 123.247 247.646 127.218 243.26 128.387L177.828 145.819C171.469 147.513 165.233 142.72 165.233 136.14V117.847Z" fill="#B76508"/>
<path d="M0 171.527C0 167.192 2.78865 163.349 6.90991 162.004L26.7604 155.528C33.2346 153.416 39.8837 158.241 39.8837 165.051V176.366C39.8837 180.843 36.9131 184.776 32.6071 186.001L12.7566 191.646C6.36053 193.465 0 188.661 0 182.012V171.527Z" fill="#B76508"/>
<path d="M96.8604 105.89C96.8604 101.698 99.4709 97.9491 103.403 96.4951L149.152 79.577C155.693 77.1581 162.643 81.9976 162.643 88.9718V100.765C162.643 105.13 159.816 108.992 155.656 110.312L109.907 124.834C103.449 126.884 96.8604 122.063 96.8604 115.286V105.89Z" fill="#B76508"/>
<path d="M42.4734 126.575C42.4734 122.38 45.0876 118.629 49.0234 117.178L80.7872 105.46C87.3272 103.048 94.2704 107.887 94.2704 114.858V123.233C94.2704 127.59 91.4538 131.447 87.3037 132.774L55.5399 142.927C49.0771 144.993 42.4734 140.171 42.4734 133.386V126.575Z" fill="#B76508"/>
<path d="M165.233 80.2497C165.233 76.0881 167.806 72.3601 171.697 70.8842L237.129 46.0662C243.683 43.5803 250.698 48.4221 250.698 55.4317V72.613C250.698 76.9491 247.908 80.7929 243.785 82.1366L178.353 103.462C171.879 105.571 165.233 100.747 165.233 93.938V80.2497Z" fill="#B76508"/>
<path d="M0 142.474C0 138.288 2.60311 134.543 6.52691 133.085L26.3774 125.707C32.9213 123.275 39.8837 128.115 39.8837 135.096V140.551C39.8837 144.913 37.0615 148.773 32.9055 150.096L13.055 156.415C6.59454 158.472 0 153.65 0 146.87V142.474Z" fill="#B76508"/>
<path d="M96.8604 71.1526C96.8604 67.097 99.3059 63.4416 103.055 61.894L148.804 43.0068C155.397 40.2846 162.643 45.1318 162.643 52.2654V63.4854C162.643 67.6494 160.066 71.379 156.172 72.8532L110.423 90.1718C103.87 92.6525 96.8604 87.8109 96.8604 80.804V71.1526Z" fill="#B76508"/>
<path d="M42.4734 94.1198C42.4734 90.0813 44.8986 86.4379 48.6241 84.8793L80.3879 71.5903C86.9875 68.8292 94.2704 73.6769 94.2704 80.8308V89.1279C94.2704 93.3023 91.6816 97.039 87.7734 98.5058L56.0096 110.427C49.4609 112.885 42.4734 108.044 42.4734 101.049V94.1198Z" fill="#B76508"/>
<path d="M165.233 42.6819C165.233 38.6536 167.646 35.0172 171.358 33.4522L236.79 5.8641C243.392 3.08013 250.698 7.92806 250.698 15.0938V30.512C250.698 34.6912 248.103 38.4312 244.188 39.8945L178.756 64.3528C172.21 66.8 165.233 61.9594 165.233 54.9703V42.6819Z" fill="#B76508"/>
<path d="M0 112.543C0 108.514 2.41434 104.877 6.12755 103.313L25.9781 94.9493C32.5806 92.1675 39.8837 97.0154 39.8837 104.18V110.429C39.8837 114.628 37.2647 118.382 33.3236 119.831L13.473 127.129C6.93473 129.533 0 124.694 0 117.727V112.543Z" fill="#B76508"/>
<path d="M378.636 179.13C378.636 174.839 375.903 171.025 371.84 169.645L338.522 158.332C332.026 156.126 325.285 160.956 325.285 167.817V186.997C325.285 191.356 328.105 195.215 332.258 196.54L365.576 207.166C372.037 209.227 378.636 204.405 378.636 197.623V179.13Z" fill="#FF8700"/>
<path d="M424.217 195.652C424.217 191.457 421.603 187.706 417.667 186.254L395.227 177.976C388.687 175.563 381.743 180.402 381.743 187.373V204.584C381.743 209.005 384.642 212.903 388.877 214.176L411.317 220.921C417.745 222.853 424.217 218.041 424.217 211.329V195.652Z" fill="#FF8700"/>
<path d="M322.177 159.483C322.177 155.253 319.52 151.479 315.539 150.053L267.2 132.737C260.675 130.399 253.805 135.236 253.805 142.167V165.089C253.805 169.504 256.696 173.398 260.922 174.676L309.261 189.296C315.692 191.241 322.177 186.428 322.177 179.708V159.483Z" fill="#FF8700"/>
<path d="M458.921 207.973C458.921 203.679 456.184 199.862 452.116 198.485L440.553 194.572C434.058 192.374 427.325 197.203 427.325 204.06V218.363C427.325 222.733 430.159 226.599 434.327 227.915L445.89 231.564C452.346 233.601 458.921 228.781 458.921 222.011V207.973Z" fill="#FF8700"/>
<path d="M378.636 139.198C378.636 135.117 376.161 131.445 372.378 129.913L339.061 116.423C332.476 113.757 325.285 118.603 325.285 125.708V142.689C325.285 146.991 328.032 150.813 332.11 152.184L365.428 163.383C371.919 165.564 378.636 160.736 378.636 153.888V139.198Z" fill="#FF8700"/>
<path d="M424.217 156.945C424.217 152.809 421.674 149.098 417.817 147.605L395.377 138.916C388.813 136.374 381.743 141.217 381.743 148.256V161.332C381.743 165.536 384.369 169.293 388.317 170.738L410.757 178.953C417.293 181.345 424.217 176.507 424.217 169.546V156.945Z" fill="#FF8700"/>
<path d="M322.177 117.006C322.177 112.936 319.715 109.271 315.947 107.732L267.608 87.9932C261.019 85.3026 253.805 90.1493 253.805 97.2664V118.718C253.805 123.005 256.534 126.817 260.592 128.199L308.931 144.663C315.429 146.876 322.177 142.046 322.177 135.182V117.006Z" fill="#FF8700"/>
<path d="M458.921 170.085C458.921 165.981 456.418 162.292 452.604 160.777L441.041 156.181C434.465 153.567 427.325 158.412 427.325 165.489V178.448C427.325 182.677 429.98 186.45 433.96 187.877L445.523 192.024C452.049 194.364 458.921 189.528 458.921 182.595V170.085Z" fill="#FF8700"/>
<path d="M378.636 104.464C378.636 100.549 376.355 96.9934 372.798 95.3604L339.48 80.0677C332.845 77.0221 325.285 81.8702 325.285 89.1712V102.168C325.285 106.248 327.759 109.92 331.541 111.452L364.859 124.948C371.444 127.616 378.636 122.769 378.636 115.664V104.464Z" fill="#FF8700"/>
<path d="M424.217 125.584C424.217 121.687 421.957 118.144 418.423 116.501L395.982 106.07C389.343 102.983 381.743 107.831 381.743 115.153V124.499C381.743 128.652 384.306 132.374 388.185 133.856L410.626 142.43C417.183 144.935 424.217 140.092 424.217 133.073V125.584Z" fill="#FF8700"/>
<path d="M322.177 79.0524C322.177 75.1534 319.915 71.6087 316.378 69.967L268.039 47.5273C261.4 44.4453 253.805 49.2931 253.805 56.6127V72.7862C253.805 76.8148 256.219 80.4514 259.931 82.0162L308.27 102.393C314.872 105.176 322.177 100.329 322.177 93.1631V79.0524Z" fill="#FF8700"/>
<path d="M458.921 140.615C458.921 136.644 456.575 133.048 452.941 131.448L441.378 126.357C434.758 123.441 427.325 128.29 427.325 135.524V141.619C427.325 145.709 429.811 149.388 433.606 150.913L445.169 155.561C451.751 158.206 458.921 153.36 458.921 146.267V140.615Z" fill="#FF8700"/>
<path d="M378.636 69.4224C378.636 65.6151 376.477 62.137 373.066 60.4469L339.748 43.9411C333.09 40.6428 325.285 45.4866 325.285 52.9166V62.548C325.285 66.4768 327.582 70.0429 331.159 71.6678L364.477 86.8027C371.108 89.8152 378.636 84.9669 378.636 77.683V69.4224Z" fill="#FF8700"/>
<path d="M424.217 93.6593C424.217 89.9398 422.156 86.5267 418.864 84.7948L396.424 72.9878C389.754 69.4783 381.743 74.3153 381.743 81.8523V90.1467C381.743 94.0225 383.979 97.5505 387.485 99.2049L409.925 109.797C416.569 112.933 424.217 108.086 424.217 100.738V93.6593Z" fill="#FF8700"/>
<path d="M322.177 41.5826C322.177 37.8434 320.094 34.4156 316.776 32.6927L268.437 7.59651C261.769 4.13475 253.805 8.9735 253.805 16.4864V31.3191C253.805 35.27 256.128 38.8518 259.735 40.4639L308.073 62.0685C314.699 65.0299 322.177 60.1813 322.177 52.9237V41.5826Z" fill="#FF8700"/>
<path d="M458.921 110.745C458.921 106.971 456.8 103.518 453.434 101.811L441.871 95.9484C435.208 92.57 427.325 97.4116 427.325 104.882V110.779C427.325 114.709 429.624 118.277 433.204 119.901L444.767 125.145C451.398 128.153 458.921 123.304 458.921 116.023V110.745Z" fill="#FF8700"/>
</svg>
